<svg xmlns="http://www.w3.org/2000/svg" xmlns:xlink="http://www.w3.org/1999/xlink" width="500" zoomAndPan="magnify" viewBox="0 0 375 374.999991" height="500" preserveAspectRatio="xMidYMid meet" version="1.0"><defs><g/><clipPath id="407b36e414"><path d="M 55.777344 148 L 163 148 L 163 226.734375 L 55.777344 226.734375 Z M 55.777344 148 " clip-rule="nonzero"/></clipPath></defs><rect x="-37.5" width="450" fill="#ffffff" y="-37.499999" height="449.999989" fill-opacity="1"/><rect x="-37.5" width="450" fill="#ffffff" y="-37.499999" height="449.999989" fill-opacity="1"/><rect x="-37.5" width="450" fill="#000000" y="-37.499999" height="449.999989" fill-opacity="1"/><g clip-path="url(#407b36e414)"><path fill="#ffffff" d="M 162.863281 197.042969 C 162.714844 194.210938 160.785156 194.359375 160.785156 194.359375 C 158.585938 193.679688 155.101562 192.953125 150.898438 192.484375 C 148.644531 176.496094 136.394531 169.332031 125.78125 166.121094 C 127.089844 163.601562 127.496094 161.175781 126.957031 161.050781 C 126.152344 160.859375 125.898438 161.84375 125.898438 161.84375 C 125.292969 163.613281 123.089844 164.492188 121.117188 164.914062 C 120.964844 164.878906 120.808594 164.851562 120.65625 164.820312 C 120.609375 164.507812 120.867188 164.320312 120.867188 164.320312 C 124.4375 160.816406 123.164062 153.597656 122.246094 153.558594 C 121.417969 153.523438 121.351562 154.539062 121.351562 154.539062 C 120.699219 159.105469 114.9375 160.976562 114.9375 160.976562 C 117.695312 155.269531 112.226562 147.984375 111.339844 148.289062 C 110.769531 148.484375 111.539062 151.765625 111.539062 151.765625 C 113.328125 159.671875 105.757812 159.753906 105.757812 159.753906 C 106.328125 156.332031 99.585938 150.214844 99.019531 150.539062 C 98.449219 150.867188 99.019531 152.089844 99.019531 152.089844 C 102.796875 160.160156 92.449219 165.875 89.171875 167.441406 C 79.628906 171.160156 69.886719 178.398438 67.90625 192.476562 C 63.707031 192.949219 60.214844 193.671875 58.019531 194.351562 C 58.019531 194.351562 56.089844 194.203125 55.9375 197.035156 C 55.789062 199.867188 56.386719 201.0625 57.425781 201.65625 C 58.460938 202.253906 59.800781 204.9375 60.542969 209.558594 C 61.117188 213.128906 62.753906 222.667969 70.667969 226.472656 C 70.683594 226.652344 70.710938 226.808594 70.753906 226.941406 C 73.261719 234.695312 77.765625 235.734375 79.675781 233.871094 C 82 231.597656 80.859375 229.679688 80.859375 229.679688 C 80.625 229.117188 80.40625 228.558594 80.199219 228.003906 C 95.183594 227.105469 100.574219 221.535156 105.242188 207.171875 C 105.242188 207.171875 104.945312 204.640625 109.402344 204.640625 C 113.855469 204.640625 113.558594 207.171875 113.558594 207.171875 C 118.230469 221.535156 123.617188 227.109375 138.605469 228.003906 C 138.398438 228.558594 138.179688 229.117188 137.941406 229.679688 C 137.941406 229.679688 136.800781 231.59375 139.125 233.871094 C 141.039062 235.734375 145.539062 234.695312 148.046875 226.941406 C 148.089844 226.8125 148.117188 226.652344 148.136719 226.472656 C 156.046875 222.664062 157.683594 213.128906 158.257812 209.558594 C 159 204.9375 160.335938 202.253906 161.378906 201.65625 C 162.421875 201.066406 163.015625 199.875 162.863281 197.042969 Z M 101.242188 201.761719 C 100.179688 202.960938 99.496094 204.460938 99.277344 205.988281 C 97.164062 212.304688 95.128906 215.972656 92.507812 218.175781 C 89.734375 220.511719 85.597656 221.691406 79.109375 222.003906 C 78.824219 222.019531 78.539062 222.023438 78.261719 222.023438 C 74.15625 222.023438 71.316406 220.53125 69.324219 217.316406 C 67.390625 214.191406 66.761719 210.277344 66.492188 208.605469 C 65.847656 204.59375 64.792969 201.480469 63.351562 199.296875 C 66.671875 198.648438 71.515625 198.027344 77.179688 198.027344 C 81.972656 198.027344 86.417969 198.480469 90.398438 199.378906 C 95 200.414062 98.570312 201.175781 101.28125 201.71875 C 101.269531 201.730469 101.257812 201.746094 101.242188 201.761719 Z M 109.402344 197.042969 C 109.402344 197.042969 104.945312 196.445312 91.726562 193.464844 C 88.207031 192.671875 84.589844 192.238281 81.058594 192.058594 C 88.308594 177.46875 104.601562 180.445312 106.359375 181.171875 C 107.917969 181.8125 109.402344 181.820312 109.402344 181.820312 C 109.402344 181.820312 110.878906 181.808594 112.441406 181.171875 C 114.199219 180.449219 130.488281 177.46875 137.746094 192.058594 C 134.214844 192.238281 130.59375 192.671875 127.078125 193.464844 C 113.855469 196.445312 109.402344 197.042969 109.402344 197.042969 Z M 152.304688 208.601562 C 152.035156 210.273438 151.40625 214.191406 149.472656 217.3125 C 147.484375 220.527344 144.644531 222.023438 140.539062 222.023438 C 140.257812 222.023438 139.972656 222.015625 139.6875 222 C 133.199219 221.691406 129.066406 220.507812 126.292969 218.171875 C 123.675781 215.96875 121.632812 212.300781 119.519531 205.984375 C 119.300781 204.457031 118.617188 202.957031 117.554688 201.757812 C 117.542969 201.742188 117.527344 201.726562 117.511719 201.710938 C 120.226562 201.164062 123.796875 200.410156 128.398438 199.371094 C 132.375 198.472656 136.824219 198.015625 141.613281 198.015625 C 147.28125 198.015625 152.128906 198.636719 155.445312 199.285156 C 154 201.476562 152.949219 204.589844 152.304688 208.601562 Z M 152.304688 208.601562 " fill-opacity="1" fill-rule="nonzero"/></g><path fill="#ffffff" d="M 132.957031 203.789062 C 129.542969 203.789062 126.773438 206.566406 126.773438 209.992188 C 126.773438 213.421875 129.542969 209.992188 132.957031 209.992188 C 136.371094 209.992188 139.140625 213.421875 139.140625 209.992188 C 139.140625 206.566406 136.371094 203.789062 132.957031 203.789062 Z M 132.957031 203.789062 " fill-opacity="1" fill-rule="nonzero"/><path fill="#ffffff" d="M 86.027344 203.789062 C 82.613281 203.789062 79.847656 206.566406 79.847656 209.992188 C 79.847656 213.421875 82.613281 209.992188 86.027344 209.992188 C 89.445312 209.992188 92.210938 213.421875 92.210938 209.992188 C 92.210938 206.566406 89.445312 203.789062 86.027344 203.789062 Z M 86.027344 203.789062 " fill-opacity="1" fill-rule="nonzero"/><g fill="#ffffff" fill-opacity="1"><g transform="translate(170.489979, 197.172717)"><g><path d="M 1.996094 -18.144531 C 1.996094 -7.566406 10.117188 0.511719 20.699219 0.511719 C 27.847656 0.511719 34.945312 -3.433594 37.453125 -10.304688 L 30.539062 -13.503906 C 28.960938 -9.558594 25.339844 -6.777344 20.792969 -6.777344 C 14.339844 -6.777344 9.792969 -11.925781 9.792969 -18.238281 C 9.792969 -24.457031 14.480469 -29.5625 20.792969 -29.5625 C 25.339844 -29.5625 28.914062 -27.011719 30.445312 -23.019531 L 37.3125 -26.175781 C 34.855469 -32.996094 27.984375 -36.894531 20.839844 -36.894531 C 10.441406 -36.894531 1.996094 -28.636719 1.996094 -18.144531 Z M 1.996094 -18.144531 "/></g></g></g><g fill="#ffffff" fill-opacity="1"><g transform="translate(205.015546, 197.172717)"><g><path d="M 19.351562 -13.738281 L 19.351562 0 L 26.546875 0 L 26.546875 -15.40625 C 26.546875 -20.511719 23.714844 -25.246094 17.449219 -25.246094 C 16.152344 -25.246094 12.714844 -24.828125 10.628906 -21.859375 L 10.582031 -21.859375 L 10.582031 -37.777344 L 3.339844 -37.777344 L 3.339844 0 L 10.582031 0 L 10.582031 -13.832031 C 10.582031 -16.195312 11.925781 -18.5625 15.035156 -18.5625 C 18.007812 -18.5625 19.351562 -16.429688 19.351562 -13.738281 Z M 19.351562 -13.738281 "/></g></g></g><g fill="#ffffff" fill-opacity="1"><g transform="translate(230.584692, 197.172717)"><g><path d="M 2.460938 -33.414062 C 2.460938 -30.957031 4.5 -28.960938 6.914062 -28.960938 C 9.46875 -28.960938 11.464844 -30.957031 11.464844 -33.414062 C 11.464844 -35.921875 9.46875 -37.917969 6.914062 -37.917969 C 4.5 -37.917969 2.460938 -35.921875 2.460938 -33.414062 Z M 3.339844 0 L 3.339844 -24.78125 L 10.628906 -24.78125 L 10.628906 0 Z M 3.339844 0 "/></g></g></g><g fill="#ffffff" fill-opacity="1"><g transform="translate(240.468501, 197.172717)"><g><path d="M 30.675781 -18.5625 C 33.648438 -18.5625 34.714844 -16.523438 34.714844 -13.832031 L 34.714844 0 L 41.953125 0 L 41.953125 -15.453125 C 41.953125 -21.117188 39.308594 -25.339844 33.230469 -25.339844 C 29.65625 -25.339844 27.335938 -23.992188 25.015625 -21.394531 C 23.578125 -24.132812 20.746094 -25.339844 17.773438 -25.339844 C 14.945312 -25.339844 11.972656 -24.039062 10.535156 -21.535156 L 10.441406 -21.535156 L 10.441406 -24.78125 L 3.339844 -24.78125 L 3.339844 0 L 10.582031 0 L 10.582031 -13.738281 C 10.582031 -16.570312 12.019531 -18.5625 14.992188 -18.5625 C 17.960938 -18.5625 19.027344 -16.429688 19.027344 -13.738281 L 19.027344 0 L 26.222656 0 L 26.222656 -13.832031 C 26.222656 -16.660156 27.753906 -18.5625 30.675781 -18.5625 Z M 30.675781 -18.5625 "/></g></g></g><g fill="#ffffff" fill-opacity="1"><g transform="translate(281.44455, 197.172717)"><g><path d="M 10.535156 -21.71875 L 10.535156 -24.78125 L 3.339844 -24.78125 L 3.339844 12.253906 L 10.582031 12.253906 L 10.582031 -2.738281 L 10.675781 -2.738281 C 12.996094 0.09375 16.242188 0.464844 18.007812 0.464844 C 25.199219 0.464844 29.980469 -5.988281 29.980469 -12.4375 C 29.980469 -18.703125 25.480469 -25.246094 18.191406 -25.246094 C 16.476562 -25.246094 12.996094 -24.921875 10.628906 -21.71875 Z M 10.394531 -12.4375 C 10.394531 -16.152344 13.132812 -18.703125 16.476562 -18.703125 C 19.910156 -18.703125 22.648438 -16.152344 22.648438 -12.4375 C 22.648438 -8.679688 19.910156 -6.078125 16.523438 -6.078125 C 13.132812 -6.078125 10.394531 -8.679688 10.394531 -12.4375 Z M 10.394531 -12.4375 "/></g></g></g><g fill="#ffffff" fill-opacity="1"><g transform="translate(179.623968, 220.340611)"><g><path d="M 3.515625 0 L 5.726562 0 L 5.726562 -8.597656 L 8.953125 -8.597656 L 8.953125 -10.753906 L 0.289062 -10.753906 L 0.289062 -8.597656 L 3.515625 -8.597656 Z M 3.515625 0 "/></g></g></g><g fill="#ffffff" fill-opacity="1"><g transform="translate(187.650763, 220.340611)"><g><path d="M 5.628906 -5.246094 L 5.628906 -7.359375 C 5.546875 -7.386719 5.355469 -7.414062 5.203125 -7.414062 C 4.175781 -7.414062 3.417969 -6.839844 3.132812 -6.207031 L 3.117188 -6.207031 L 3.117188 -7.332031 L 0.988281 -7.332031 L 0.988281 0 L 3.132812 0 L 3.132812 -3.105469 C 3.132812 -4.3125 3.652344 -5.285156 5.121094 -5.285156 C 5.316406 -5.285156 5.464844 -5.273438 5.628906 -5.246094 Z M 5.628906 -5.246094 "/></g></g></g><g fill="#ffffff" fill-opacity="1"><g transform="translate(192.274314, 220.340611)"><g><path d="M 3.046875 0.136719 C 3.84375 0.136719 4.695312 -0.136719 5.246094 -0.921875 L 5.273438 -0.90625 L 5.273438 0 L 7.25 0 L 7.25 -4.546875 C 7.25 -6.523438 5.933594 -7.496094 4.066406 -7.496094 C 2.402344 -7.496094 1.289062 -6.839844 0.699219 -5.753906 L 2.335938 -4.777344 C 2.691406 -5.425781 3.199219 -5.769531 3.96875 -5.769531 C 4.777344 -5.769531 5.148438 -5.328125 5.148438 -4.859375 C 5.148438 -4.558594 4.972656 -4.324219 4.574219 -4.324219 L 3.84375 -4.324219 C 2.363281 -4.324219 0.578125 -3.886719 0.578125 -2.074219 L 0.578125 -2.046875 C 0.578125 -0.6875 1.730469 0.136719 3.046875 0.136719 Z M 3.667969 -1.429688 C 3.160156 -1.429688 2.734375 -1.648438 2.734375 -2.167969 C 2.734375 -2.746094 3.269531 -3.007812 3.84375 -3.007812 L 5.136719 -3.007812 L 5.136719 -2.84375 C 5.136719 -2.074219 4.613281 -1.429688 3.667969 -1.429688 Z M 3.667969 -1.429688 "/></g></g></g><g fill="#ffffff" fill-opacity="1"><g transform="translate(199.230732, 220.340611)"><g><path d="M 4.492188 0.164062 C 6.070312 0.164062 7.429688 -0.5625 8.019531 -2.113281 L 6.125 -2.898438 C 5.890625 -2.347656 5.425781 -1.8125 4.503906 -1.8125 C 3.445312 -1.8125 2.746094 -2.59375 2.746094 -3.679688 C 2.746094 -4.847656 3.558594 -5.535156 4.503906 -5.535156 C 5.425781 -5.535156 5.835938 -5.011719 6.082031 -4.449219 L 7.964844 -5.230469 C 7.484375 -6.714844 6.082031 -7.496094 4.503906 -7.496094 C 2.308594 -7.496094 0.550781 -5.824219 0.550781 -3.652344 C 0.550781 -1.46875 2.183594 0.164062 4.492188 0.164062 Z M 4.492188 0.164062 "/></g></g></g><g fill="#ffffff" fill-opacity="1"><g transform="translate(206.461601, 220.340611)"><g><path d="M 3.132812 -3.472656 L 3.1875 -3.472656 L 5.78125 0 L 8.488281 0 L 5.453125 -3.953125 L 8.402344 -7.332031 L 5.671875 -7.332031 L 3.132812 -4.449219 L 3.132812 -11.191406 L 0.988281 -11.191406 L 0.988281 0 L 3.132812 0 Z M 3.132812 -3.472656 "/></g></g></g><g fill="#ffffff" fill-opacity="1"><g transform="translate(213.747367, 220.340611)"><g><path d="M 2.71875 -3.074219 L 8.046875 -3.074219 C 8.074219 -3.324219 8.074219 -3.585938 8.074219 -3.84375 C 8.074219 -6.015625 6.605469 -7.511719 4.421875 -7.511719 C 2.308594 -7.511719 0.535156 -5.796875 0.535156 -3.679688 C 0.535156 -1.402344 2.335938 0.164062 4.558594 0.164062 C 6.042969 0.164062 7.101562 -0.382812 7.71875 -1.496094 L 6.164062 -2.511719 C 5.835938 -1.964844 5.148438 -1.632812 4.53125 -1.632812 C 3.640625 -1.632812 2.855469 -2.15625 2.71875 -3.074219 Z M 5.933594 -4.492188 L 2.773438 -4.492188 C 2.855469 -4.972656 3.40625 -5.769531 4.367188 -5.769531 C 5.4375 -5.769531 5.890625 -5.027344 5.933594 -4.492188 Z M 5.933594 -4.492188 "/></g></g></g><g fill="#ffffff" fill-opacity="1"><g transform="translate(221.142916, 220.340611)"><g><path d="M 5.628906 -5.246094 L 5.628906 -7.359375 C 5.546875 -7.386719 5.355469 -7.414062 5.203125 -7.414062 C 4.175781 -7.414062 3.417969 -6.839844 3.132812 -6.207031 L 3.117188 -6.207031 L 3.117188 -7.332031 L 0.988281 -7.332031 L 0.988281 0 L 3.132812 0 L 3.132812 -3.105469 C 3.132812 -4.3125 3.652344 -5.285156 5.121094 -5.285156 C 5.316406 -5.285156 5.464844 -5.273438 5.628906 -5.246094 Z M 5.628906 -5.246094 "/></g></g></g></svg>